<svg width="201" height="63" viewBox="0 0 201 63" fill="none" xmlns="http://www.w3.org/2000/svg">
<g clip-path="url(#clip0)">
<path d="M7.69722e-05 59.5973C0.0724833 59.0544 0.159371 58.5041 0.217296 57.9612C0.434515 56.0064 0.644493 54.059 0.854472 52.1042C1.10789 49.7803 1.35408 47.4563 1.60026 45.1324C1.67266 44.4736 1.70163 43.8075 1.85368 43.1632C2.20847 41.6356 3.31629 40.8537 4.74993 40.5134C5.48124 40.3397 6.24874 40.2311 7.00177 40.2239C10.8031 40.1949 14.6044 40.2021 18.4058 40.2166C19.2964 40.2239 20.187 40.3397 21.0196 40.6944C22.3374 41.2519 22.9239 42.222 22.7791 43.641C22.6995 44.4446 22.5909 45.2482 22.5112 46.0446C22.4895 46.2328 22.4533 46.3342 22.2361 46.3269C21.3962 46.3052 20.549 46.3197 19.7091 46.2618C18.7461 46.1894 18.2972 45.6536 18.3189 44.6835C18.3261 44.4301 18.3478 44.1695 18.2972 43.9306C18.1813 43.4021 17.812 43.0763 17.298 42.946C16.9649 42.8591 16.6101 42.8084 16.2625 42.8084C13.7645 42.794 11.2665 42.7867 8.76848 42.8157C8.23992 42.8229 7.68963 42.9388 7.17555 43.0908C6.4732 43.3007 6.08945 43.8365 6.0098 44.5532C5.74914 46.8627 5.51744 49.1794 5.26402 51.4889C5.06128 53.3784 4.8513 55.2752 4.64132 57.1648C4.5834 57.6643 4.52547 58.1711 4.48203 58.6707C4.4241 59.4163 4.74269 59.9593 5.46676 60.1548C5.98084 60.2996 6.53113 60.372 7.06694 60.3792C9.45635 60.4009 11.8458 60.4009 14.2352 60.3792C14.6768 60.372 15.1258 60.2996 15.5457 60.1765C16.2191 59.9738 16.697 59.5032 16.7621 58.7937C16.8563 57.6571 17.5152 56.9621 18.775 56.9042C19.615 56.868 20.4549 56.8969 21.331 56.8969C21.2441 57.7005 21.1862 58.4897 21.0631 59.2716C20.9762 59.8145 20.8676 60.372 20.6286 60.857C20.1001 61.9358 19.1081 62.457 17.9931 62.6887C17.1604 62.8552 16.2987 62.9638 15.4516 62.971C11.9182 63 8.38473 62.9855 4.84406 62.9783C3.85209 62.9783 2.86737 62.8987 1.92609 62.5439C0.905156 62.1602 0.195574 61.5159 0.0435208 60.3792C0.0362801 60.3358 0.00731761 60.2924 -0.0144043 60.2489C7.69722e-05 60.0317 7.69722e-05 59.8145 7.69722e-05 59.5973Z" fill="#9CAF3C"/>
<path d="M201 45.9867C200.935 46.1749 200.87 46.3704 200.79 46.5514C200.334 47.6518 199.219 48.2599 198.039 48.0717C196.909 47.8907 196.026 46.8916 195.953 45.7116C195.881 44.5967 196.634 43.5252 197.727 43.1777C199.103 42.7433 200.544 43.5541 200.92 44.9586C200.942 45.0383 200.978 45.1107 201.007 45.1903C201 45.4509 201 45.7188 201 45.9867ZM198.466 47.6663C199.646 47.6663 200.566 46.7613 200.573 45.5957C200.58 44.4229 199.646 43.5035 198.451 43.5035C197.315 43.5035 196.38 44.4374 196.373 45.574C196.359 46.7251 197.3 47.6663 198.466 47.6663Z" fill="#526D3E"/>
<path d="M118.616 7.93471C118.312 7.59444 118.015 7.25418 117.697 6.92839C115.669 4.87231 113.179 3.63432 110.413 2.91759C108.088 2.30945 105.721 2.0995 103.317 2.22981C96.9306 2.57008 91.2033 4.71304 86.1493 8.61524C83.3906 10.7437 81.1533 13.3211 79.6617 16.4993C78.7783 18.3744 78.257 20.3436 78.2643 22.4286C78.2787 26.0123 79.7414 28.9299 82.4711 31.2249C84.7012 33.1072 87.3295 34.1497 90.1606 34.6855C94.4254 35.4963 98.6249 35.1126 102.774 33.9398C102.839 33.918 102.911 33.9108 102.998 33.9398C102.738 34.0411 102.47 34.1425 102.209 34.2438C101.934 34.3452 101.666 34.4321 101.391 34.5262C97.5968 35.7642 93.7085 36.3506 89.7189 36.1262C86.1348 35.9162 82.7173 35.0836 79.64 33.1651C77.0116 31.5289 75.0349 29.3353 73.985 26.3815C73.0582 23.7607 73.0944 21.111 73.8185 18.4613C74.6801 15.312 76.3527 12.6188 78.5322 10.2297C81.7832 6.66052 85.7511 4.13386 90.2113 2.34565C92.7745 1.32485 95.4173 0.622598 98.1543 0.275092C102.832 -0.311325 107.422 -0.0217367 111.796 1.91851C114.583 3.14926 116.886 4.98091 118.493 7.61616C118.551 7.71028 118.595 7.80439 118.645 7.90575C118.653 7.89851 118.638 7.91299 118.616 7.93471Z" fill="#526D3E"/>
<path d="M166.737 46.5659C166.86 45.3568 167.012 44.1912 167.092 43.0184C167.15 42.1062 166.752 41.7514 165.832 41.7659C165.449 41.7732 165.065 41.7659 164.63 41.7659C164.659 41.4981 164.688 41.2447 164.71 40.984C164.739 40.7306 164.761 40.4845 164.782 40.2166C164.898 40.2094 164.992 40.1949 165.086 40.1949C166.766 40.1949 168.439 40.1949 170.119 40.1949C171.198 40.1949 171.719 40.7306 171.618 41.8021C171.444 43.612 171.234 45.4147 171.038 47.2247C170.836 49.1287 170.633 51.0328 170.43 52.9368C170.249 54.6092 170.061 56.2888 169.88 57.9612C169.8 58.6562 169.721 59.3512 169.655 60.0462C169.597 60.7123 169.93 61.1249 170.604 61.2118C170.857 61.2408 171.111 61.2408 171.364 61.2408C171.618 61.248 171.864 61.2408 172.161 61.2408C172.095 61.8417 172.038 62.4064 171.972 62.9928C171.306 62.9928 170.684 62.9928 170.054 62.9928C168.895 62.9928 167.737 63 166.578 62.9855C165.572 62.9711 165.043 62.4136 165.137 61.4218C165.282 59.829 165.47 58.2363 165.644 56.6435C165.658 56.5205 165.659 56.3974 165.673 56.2019C165.239 56.9693 164.891 57.7005 164.442 58.3593C163.189 60.1838 161.633 61.6969 159.489 62.3991C158.44 62.7466 157.296 62.8625 156.188 62.9421C155.029 63.029 153.849 63.0072 152.683 62.9131C151.221 62.7901 150.352 61.7982 150.402 60.343C150.439 59.1268 150.598 57.9177 150.721 56.7087C150.866 55.2608 151.032 53.8128 151.192 52.3649C151.329 51.0979 151.431 49.8237 151.633 48.564C151.836 47.3043 152.64 46.4935 153.798 46.0084C154.892 45.5595 156.036 45.4582 157.201 45.4582C159.75 45.4509 162.292 45.4509 164.84 45.4509C165.992 45.4437 166.173 45.5523 166.737 46.5659ZM161.676 48.0789C161.676 48.1007 161.676 48.1296 161.676 48.1513C160.373 48.1513 159.07 48.1007 157.773 48.1658C156.608 48.2237 155.971 48.8681 155.833 49.9758C155.768 50.5043 155.724 51.0328 155.666 51.554C155.507 53.0164 155.348 54.4716 155.189 55.934C155.087 56.8824 154.971 57.8236 154.892 58.772C154.812 59.7421 155.29 60.2779 156.26 60.3358C157.795 60.4227 159.222 60.0028 160.452 59.1195C163.646 56.8318 165.767 53.82 166.375 49.8672C166.549 48.7378 165.97 48.0862 164.826 48.0789C163.776 48.0789 162.726 48.0789 161.676 48.0789Z" fill="#526D3E"/>
<path d="M194.187 57.7223C194.049 58.62 194.005 59.4888 193.774 60.2996C193.332 61.8272 192.101 62.4715 190.66 62.7611C189.943 62.9059 189.205 62.9783 188.474 62.9855C184.817 63.0073 181.161 63.0145 177.511 62.9783C176.737 62.9711 175.94 62.8769 175.194 62.6815C173.399 62.2109 172.703 61.0598 172.935 59.2136C173.152 57.5051 173.312 55.7893 173.5 54.0807C173.695 52.2852 173.862 50.4825 174.101 48.6943C174.267 47.4274 175.028 46.5586 176.193 46.0446C177.338 45.5451 178.547 45.4509 179.77 45.4437C183.268 45.4365 186.765 45.4365 190.269 45.4509C191.334 45.4509 192.384 45.5378 193.39 45.9432C194.563 46.4283 195.193 47.3043 195.128 48.5785C195.077 49.6138 194.932 50.6418 194.816 51.6699C194.759 52.1839 194.715 52.7051 194.578 53.1974C194.179 54.6164 193.108 55.3404 191.761 55.6589C190.95 55.8472 190.096 55.9485 189.263 55.9558C186.091 55.992 182.92 55.9703 179.741 55.9703C179.51 55.9703 179.278 55.963 179.054 55.9992C178.163 56.144 177.685 56.6218 177.54 57.5413C177.475 57.9322 177.424 58.3304 177.41 58.7213C177.381 59.4888 177.707 59.9593 178.445 60.1693C178.836 60.2779 179.249 60.343 179.655 60.343C182.268 60.3503 184.89 60.3503 187.503 60.3068C187.923 60.2996 188.351 60.1403 188.742 59.9738C189.248 59.7566 189.545 59.3367 189.639 58.7865C189.806 57.8671 189.994 57.715 190.935 57.715C191.985 57.7223 193.028 57.7223 194.187 57.7223ZM177.924 53.7404C178.243 53.3133 178.692 53.3495 179.14 53.3495C181.877 53.3495 184.614 53.3567 187.351 53.3422C187.822 53.3422 188.293 53.306 188.749 53.2192C189.668 53.0454 190.385 52.5459 190.443 51.3803C190.472 50.8735 190.544 50.374 190.61 49.8744C190.711 49.0853 190.392 48.5206 189.625 48.2962C189.161 48.1586 188.655 48.0862 188.17 48.0862C185.925 48.0645 183.688 48.0717 181.443 48.079C181.037 48.079 180.625 48.1079 180.219 48.1514C179.155 48.2744 178.453 48.8753 178.344 49.7948C178.185 51.1124 178.062 52.43 177.924 53.7404Z" fill="#526D3E"/>
<path d="M133.315 57.7801C133.155 58.6923 133.068 59.619 132.815 60.5023C132.54 61.4652 131.78 62.0443 130.874 62.428C129.919 62.8335 128.905 62.9855 127.87 62.9855C124.09 63 120.318 63.0145 116.538 62.971C115.705 62.9638 114.851 62.819 114.054 62.5873C112.476 62.1312 111.81 60.9367 112.027 59.3077C112.244 57.6281 112.404 55.934 112.592 54.2472C112.795 52.401 112.947 50.5549 113.2 48.716C113.425 47.0943 114.503 46.1532 116.031 45.7984C116.994 45.574 118.008 45.4654 119 45.4509C122.49 45.4147 125.973 45.422 129.462 45.4654C130.324 45.4726 131.2 45.5812 132.033 45.7912C133.64 46.1966 134.35 47.2391 134.227 48.8825C134.14 50.0554 133.981 51.2282 133.858 52.401C133.669 54.2182 132.576 55.239 130.889 55.6444C130.078 55.8399 129.224 55.934 128.384 55.9485C125.183 55.9847 121.99 55.963 118.79 55.963C118.573 55.963 118.355 55.963 118.145 55.9992C117.211 56.1729 116.777 56.6363 116.639 57.5847C116.581 58.0046 116.516 58.4172 116.509 58.8371C116.495 59.3946 116.748 59.8507 117.277 60.0317C117.762 60.1982 118.283 60.3213 118.783 60.3285C121.375 60.3502 123.974 60.3285 126.566 60.3068C126.892 60.3068 127.232 60.2127 127.551 60.1113C128.318 59.8579 128.709 59.3005 128.818 58.5114C128.89 57.9901 129.173 57.7222 129.687 57.715C130.824 57.7005 131.953 57.7077 133.09 57.7077C133.126 57.7222 133.17 57.7439 133.315 57.7801ZM117.045 53.6969C117.356 53.3712 117.725 53.3494 118.102 53.3494C120.904 53.3494 123.699 53.3567 126.501 53.3494C126.972 53.3494 127.442 53.2988 127.899 53.2264C128.789 53.0816 129.419 52.4952 129.528 51.706C129.622 51.0472 129.687 50.3884 129.745 49.7296C129.803 49.0997 129.506 48.5567 128.898 48.3685C128.369 48.202 127.797 48.1006 127.24 48.0862C124.981 48.0572 122.729 48.0717 120.47 48.0789C120.086 48.0789 119.695 48.1079 119.318 48.1586C118.24 48.2961 117.631 48.8391 117.458 49.7803C117.421 49.9685 117.414 50.164 117.392 50.3522C117.284 51.4744 117.161 52.582 117.045 53.6969Z" fill="#526D3E"/>
<path d="M23.9521 50.6635C24.1042 49.2445 24.0101 47.7749 25.2193 46.7106C26.0519 45.9794 27.0729 45.7043 28.1372 45.5668C28.6368 45.5016 29.1509 45.4799 29.6505 45.4726C33.4374 45.4726 37.2315 45.4654 41.0183 45.4944C41.9234 45.5016 42.814 45.6609 43.6467 46.0663C44.7472 46.602 45.2975 47.6808 45.1455 48.897C44.9427 50.5839 44.7762 52.2707 44.5952 53.9648C44.4142 55.6444 44.2332 57.3168 44.0449 58.9964C43.9942 59.4236 43.9508 59.8652 43.8277 60.2706C43.3933 61.6824 42.3072 62.3774 40.9604 62.6814C40.1929 62.8552 39.3892 62.9638 38.5999 62.971C34.9217 63 31.2362 63.0072 27.558 62.9638C26.7253 62.9566 25.8709 62.8262 25.0672 62.5946C23.5105 62.1529 22.8516 61.1321 22.9819 59.5322C23.0833 58.2942 23.2426 57.0634 23.3874 55.8327C23.5684 54.3558 24.4445 53.4508 25.7985 52.9513C26.8194 52.5748 27.8838 52.4879 28.9627 52.4952C32.163 52.4952 35.3561 52.4952 38.5565 52.4952C39.2299 52.4952 39.8671 52.3721 40.2581 51.7422C40.3956 51.5178 40.497 51.2644 40.5477 51.011C40.6273 50.5984 40.6708 50.1785 40.6997 49.7586C40.7504 49.0346 40.4173 48.5206 39.715 48.3034C39.3313 48.1875 38.9113 48.1007 38.5131 48.0934C35.9788 48.0717 33.4446 48.0645 30.9104 48.1007C30.3818 48.1079 29.8388 48.2599 29.3392 48.4482C28.7527 48.6654 28.4631 49.1794 28.3762 49.7947C28.2893 50.4536 28.0286 50.6925 27.3914 50.6997C26.356 50.707 25.3134 50.6997 24.278 50.6997C24.1766 50.6852 24.0825 50.6708 23.9521 50.6635ZM40.1784 54.6092C39.8815 55.0291 39.4905 55.0942 39.0634 55.0942C36.1454 55.0942 33.2202 55.087 30.3022 55.1015C29.8967 55.1015 29.484 55.1521 29.0858 55.2535C28.2314 55.4635 27.6956 55.9919 27.6014 56.9042C27.5435 57.5123 27.4566 58.1277 27.4277 58.7358C27.3914 59.5105 27.71 59.9738 28.4631 60.1837C28.912 60.3068 29.3899 60.3792 29.8533 60.3792C32.2282 60.4009 34.6104 60.4082 36.9853 60.3792C37.5283 60.372 38.0859 60.2561 38.6072 60.0896C39.2226 59.8942 39.6136 59.4308 39.7005 58.772C39.8671 57.382 40.0191 55.9992 40.1784 54.6092Z" fill="#9CAF3C"/>
<path d="M67.9968 50.6635C68.1271 49.8092 68.1778 48.9549 68.395 48.1513C68.6991 47.0075 69.568 46.3342 70.6469 45.9287C71.5013 45.6102 72.3991 45.4799 73.3042 45.4799C77.2286 45.4726 81.1458 45.4654 85.0702 45.4871C86.026 45.4944 86.9672 45.6464 87.8289 46.1097C88.886 46.6744 89.3784 47.688 89.2336 48.8825C89.0308 50.5839 88.8715 52.2852 88.6833 53.9865C88.4805 55.8761 88.2778 57.7729 88.0461 59.6625C87.8723 61.1032 87.0034 61.9937 85.6712 62.4932C84.7082 62.8552 83.7017 62.971 82.688 62.971C79.0532 62.9855 75.4257 63 71.7909 62.9565C70.9075 62.9493 70.0097 62.819 69.1553 62.5946C67.642 62.1964 66.9397 61.1611 67.0555 59.6118C67.1496 58.3738 67.3089 57.1431 67.4465 55.9123C67.6348 54.2906 68.605 53.3495 70.0966 52.8644C71.0596 52.5531 72.0516 52.4807 73.058 52.4807C76.2077 52.4807 79.3573 52.4807 82.507 52.4734C82.8039 52.4734 83.1152 52.459 83.4049 52.3793C84.1506 52.1766 84.5272 51.6336 84.6358 50.8879C84.6792 50.6056 84.7009 50.316 84.7444 50.0264C84.8964 48.9549 84.433 48.3179 83.3542 48.1369C83.0718 48.0862 82.7822 48.0572 82.4925 48.0572C80.009 48.05 77.5182 48.0355 75.0347 48.0717C74.4844 48.0789 73.9196 48.2382 73.3983 48.4337C72.8263 48.6436 72.5512 49.1577 72.457 49.7513C72.3484 50.4536 72.1095 50.6708 71.4071 50.6708C70.3935 50.6708 69.3798 50.6708 68.3661 50.6708C68.2792 50.6852 68.1706 50.678 67.9968 50.6635ZM84.2592 54.6309C83.9407 55.0435 83.528 55.0942 83.079 55.0942C80.1828 55.087 77.2865 55.087 74.3903 55.1015C73.9703 55.1015 73.5431 55.1594 73.1376 55.2607C72.4281 55.4417 71.8778 55.8544 71.7547 56.6218C71.6388 57.3241 71.5664 58.0335 71.5302 58.743C71.4868 59.5104 71.8199 59.9883 72.5729 60.1765C73.0652 60.3068 73.5938 60.372 74.1079 60.3792C76.2946 60.4009 78.474 60.3937 80.6607 60.3865C81.0444 60.3865 81.4354 60.3647 81.8192 60.3285C83.0139 60.2127 83.709 59.6263 83.8465 58.5838C83.9986 57.2661 84.1217 55.9485 84.2592 54.6309Z" fill="#9CAF3C"/>
<path d="M66.0129 51.5395C64.9703 51.5395 63.9566 51.583 62.9501 51.525C62.255 51.4888 61.864 50.9748 61.8496 50.2798C61.8423 50.0988 61.8496 49.9178 61.8568 49.7368C61.8785 48.926 61.531 48.4337 60.7417 48.231C60.4087 48.1441 60.0539 48.0862 59.7063 48.0789C57.7369 48.0645 55.7747 48.05 53.8052 48.0862C53.2984 48.0934 52.777 48.231 52.3064 48.412C51.5461 48.7088 51.1696 49.5196 51.2927 50.3812C51.4086 51.221 51.8068 51.583 52.7119 51.764C55.7167 52.3648 58.7288 52.9513 61.7265 53.6101C62.5591 53.7911 63.3846 54.1386 64.1376 54.5368C65.1947 55.0942 65.6147 56.0209 65.4119 57.2372C65.2744 58.0408 65.2599 58.8661 65.1368 59.677C64.8689 61.4073 63.7249 62.3122 62.1175 62.6742C61.292 62.8624 60.4231 62.9493 59.576 62.9638C56.5567 63 53.5446 62.9928 50.5252 62.971C49.4174 62.9638 48.3096 62.8552 47.2959 62.3195C46.3401 61.8199 45.8405 61.0163 45.8912 59.9448C45.9346 58.9964 46.0505 58.048 46.1591 57.0996C46.1664 57.0127 46.3329 56.868 46.427 56.868C47.2742 56.8535 48.1141 56.839 48.9612 56.8752C49.9387 56.9186 50.4166 57.4616 50.3659 58.3811C50.2935 59.6625 50.7642 60.2127 52.0602 60.3285C52.4585 60.3647 52.8567 60.3865 53.2549 60.3865C54.8696 60.3937 56.4915 60.4227 58.1061 60.372C58.7288 60.3503 59.3877 60.2272 59.9597 59.9955C60.8938 59.6118 61.2413 58.2145 60.6911 57.353C60.4376 56.9548 60.0394 56.7883 59.605 56.7014C57.1431 56.2019 54.6741 55.7241 52.2123 55.2028C51.1189 54.9711 50.0328 54.7033 48.9685 54.363C48.4761 54.211 48.0127 53.8997 47.6 53.5811C46.9411 53.0816 46.666 52.3793 46.7601 51.5395C46.8615 50.6563 46.9483 49.7658 47.0569 48.8825C47.2307 47.3622 48.1286 46.4283 49.526 45.9287C50.5976 45.545 51.7127 45.4726 52.835 45.4799C55.8181 45.4871 58.794 45.4654 61.7771 45.5016C62.5881 45.5161 63.4208 45.6247 64.1955 45.8491C65.7957 46.3052 66.4401 47.3188 66.3025 48.9694C66.2301 49.8092 66.1143 50.6563 66.0129 51.5395Z" fill="#9CAF3C"/>
<path d="M91.384 42.374C91.4637 41.6211 91.5433 40.9261 91.623 40.2166C91.7388 40.2093 91.8402 40.1949 91.9488 40.1949C93.6359 40.1949 95.3302 40.1876 97.0173 40.1949C98.002 40.2021 98.5161 40.6944 98.4581 41.6718C98.4002 42.707 98.2699 43.7351 98.154 44.7631C98.0237 46.0084 97.8789 47.2536 97.7413 48.4988C97.5748 49.983 97.4155 51.4671 97.2562 52.9512C97.1041 54.363 96.9521 55.7747 96.8 57.1937C96.7204 57.9611 96.6335 58.7285 96.5683 59.4959C96.5176 60.1041 96.7349 60.3285 97.3503 60.3575C98.5305 60.4154 99.5877 59.9955 100.645 59.5321C103.005 58.4969 104.634 56.6942 106.01 54.5802C107.929 51.6336 108.964 48.383 109.478 44.9441C109.696 43.4962 109.826 42.0265 109.992 40.5713C110.007 40.4555 110.029 40.3324 110.058 40.2093C110.927 40.2093 111.774 40.2093 112.672 40.2093C112.614 40.7451 112.585 41.2591 112.505 41.7659C112.201 43.6048 111.926 45.4509 111.564 47.2753C110.992 50.135 109.942 52.8137 108.24 55.21C106.64 57.4688 104.823 59.5177 102.469 61.0235C100.652 62.1891 98.6319 62.7466 96.5032 62.9059C95.5184 62.9782 94.5265 62.971 93.5417 62.9855C92.3977 62.9927 91.8692 62.4353 91.9705 61.2914C92.1009 59.8869 92.2674 58.4896 92.4194 57.0924C92.5787 55.6299 92.738 54.1748 92.8973 52.7123C93.1073 50.7938 93.3173 48.8825 93.5273 46.964C93.6576 45.7767 93.7879 44.5894 93.911 43.4093C93.9255 43.2428 93.9255 43.069 93.9183 42.9025C93.8965 42.5043 93.6721 42.1713 93.2738 42.1496C92.7887 42.1206 92.3036 42.2075 91.8112 42.2582C91.6881 42.2727 91.565 42.3233 91.384 42.374Z" fill="#526D3E"/>
<path d="M117.342 8.62971C118.298 9.83151 118.935 11.1926 119.246 12.7057C119.797 15.4133 119.304 17.9762 118.153 20.4377C117.031 22.834 115.401 24.8467 113.432 26.5987C109.645 29.9579 105.236 32.0719 100.283 33.0493C96.2066 33.8529 92.1518 33.8239 88.1984 32.3832C85.3673 31.3479 82.9852 29.7118 81.4429 27.0476C79.821 24.2385 79.7052 21.2558 80.6537 18.2151C81.5805 15.2251 83.3472 12.7636 85.6063 10.6424C86.4317 9.86771 87.3368 9.18717 88.2129 8.4632C88.2925 8.39804 88.3867 8.34737 88.5098 8.33289C88.1912 8.62971 87.8653 8.91206 87.5468 9.21613C85.6352 11.0405 84.0857 13.1111 83.2024 15.6233C82.0656 18.8522 82.1887 21.9725 84.1726 24.8756C85.4904 26.7942 87.3368 28.0611 89.4728 28.9154C92.188 30.0014 95.0119 30.3054 97.9153 30.0882C102.796 29.719 107.22 28.0973 111.173 25.2231C113.664 23.4132 115.727 21.2051 117.11 18.4251C118.088 16.4631 118.566 14.3925 118.385 12.1989C118.276 10.9464 117.914 9.75911 117.342 8.62971Z" fill="#9CAE43"/>
<path d="M134.966 47.2101C135.024 46.6454 135.067 46.1242 135.139 45.6029C135.147 45.545 135.284 45.4509 135.364 45.4509C137.174 45.4509 138.984 45.4509 140.787 45.4871C141.54 45.5016 141.96 46.0011 141.982 46.754C141.989 46.9061 141.982 47.0581 141.982 47.2246C142.025 47.2029 142.054 47.1957 142.054 47.1812C142.474 46.0156 143.35 45.4799 144.552 45.4654C146.109 45.4437 147.666 45.4509 149.222 45.4654C149.794 45.4726 150.004 45.7115 149.954 46.2907C149.889 47.0002 149.816 47.7024 149.715 48.4047C149.577 49.3314 148.831 49.8888 147.839 49.7947C147.839 49.621 147.861 49.4472 147.839 49.2662C147.753 48.5423 147.253 48.1006 146.435 48.0862C145.457 48.0644 144.48 48.0572 143.502 48.0862C142.431 48.1224 141.822 48.6943 141.692 49.7802C141.504 51.4309 141.345 53.0816 141.164 54.7394C140.983 56.3901 140.794 58.0408 140.613 59.6914C140.592 59.8796 140.592 60.0751 140.592 60.2706C140.606 60.7991 140.896 61.1466 141.424 61.19C141.946 61.2335 142.481 61.1973 143.075 61.1973C143.01 61.8271 142.952 62.3846 142.894 62.9782C142.764 62.9855 142.648 62.9927 142.532 62.9927C140.954 62.9927 139.375 62.9927 137.789 62.9927C137.623 62.9927 137.449 63 137.283 62.971C136.327 62.8262 135.929 62.2108 136.044 61.1611C136.298 58.9602 136.522 56.7593 136.761 54.5585C136.964 52.6906 137.174 50.8228 137.377 48.9549C137.406 48.7015 137.42 48.4481 137.413 48.1948C137.398 47.5866 137.058 47.2391 136.443 47.2101C136.189 47.1957 135.936 47.2029 135.682 47.2029C135.48 47.2101 135.241 47.2101 134.966 47.2101Z" fill="#526D3E"/>
<path d="M115.09 18.425C115.257 17.8169 115.459 17.2088 115.575 16.5862C116.22 13.0894 114.822 10.0125 111.774 8.18085C110.022 7.13109 108.11 6.59535 106.09 6.44332C101.507 6.09581 97.3288 7.31208 93.5129 9.79531C91.0873 11.3736 89.1034 13.3862 87.858 16.0432C87.1557 17.5418 86.8009 19.1201 86.9602 20.778C87.1702 22.9571 88.1838 24.7164 89.8854 26.0702C90.5298 26.5842 91.2611 26.9896 91.8548 27.3878C90.805 27.0548 89.7116 26.5335 88.7124 25.8168C86.9095 24.5281 85.6641 22.8485 85.1717 20.6694C84.6866 18.4974 85.0776 16.4269 86.0044 14.4504C87.4019 11.4604 89.6682 9.25233 92.3979 7.4786C95.0914 5.72659 98.0383 4.60443 101.202 4.11213C104.41 3.61259 107.581 3.75014 110.615 5.02433C113.077 6.05237 115.003 7.67407 116.01 10.2224C116.9 12.4885 116.69 14.7328 115.821 16.9554C115.619 17.4694 115.365 17.9545 115.141 18.454C115.119 18.4395 115.105 18.4323 115.09 18.425Z" fill="#9CAE43"/>
<path d="M34.6756 43.069C34.4367 43.069 34.2484 43.069 34.0023 43.069C34.1471 41.7152 34.2846 40.3831 34.4367 38.9496C34.2557 39.0582 34.1398 39.1234 34.024 39.203C33.1623 39.7822 32.2935 40.3469 31.4463 40.9406C31.2291 41.0926 31.077 41.0854 30.8743 40.9188C30.0561 40.26 29.2307 39.6229 28.3401 38.9279C28.188 40.3469 28.036 41.7007 27.8839 43.069C27.6667 43.069 27.4712 43.069 27.2178 43.069C27.3843 41.498 27.5581 39.9415 27.7246 38.3849C28.1446 38.2836 28.4632 38.3632 28.7818 38.6239C29.4986 39.2175 30.2444 39.7677 30.9684 40.3469C31.1494 40.4917 31.2725 40.5062 31.468 40.3686C32.3297 39.775 33.2203 39.2103 34.0747 38.6094C34.4077 38.3777 34.7336 38.2908 35.1752 38.3777C35.0159 39.9342 34.8422 41.4908 34.6756 43.069Z" fill="#526D3E"/>
<path d="M44.7255 43.1921C43.6684 43.1777 42.6619 43.0039 41.7496 42.4392C41.5686 42.3234 41.3876 42.1931 41.2355 42.041C40.5259 41.3315 40.5042 40.4193 41.1993 39.6954C41.8944 38.9714 42.7778 38.6094 43.7408 38.4284C45.1527 38.1605 46.5429 38.1823 47.8752 38.8121C48.0996 38.9207 48.3241 39.051 48.5268 39.2031C49.4826 39.9126 49.555 41.013 48.7006 41.8383C47.9331 42.584 46.9773 42.917 45.9492 43.0835C45.5437 43.1415 45.131 43.1559 44.7255 43.1921ZM44.6169 42.8157C45.8768 42.8229 46.9484 42.584 47.8534 41.8673C48.8382 41.0854 48.773 39.956 47.7159 39.2755C47.0787 38.87 46.3764 38.6818 45.6306 38.6384C44.3852 38.5587 43.1977 38.7832 42.184 39.5433C41.0835 40.3687 41.1848 41.5777 42.3868 42.2582C43.1181 42.6636 43.9073 42.8302 44.6169 42.8157Z" fill="#526D3E"/>
<path d="M66.7732 38.6673C66.7081 39.3044 66.6429 39.898 66.5778 40.5279C67.8014 40.5279 68.9744 40.5279 70.1546 40.5279C70.1763 40.832 70.1763 40.8392 69.9301 40.8392C68.9527 40.8392 67.9752 40.8392 66.9977 40.8392C66.8674 40.8392 66.737 40.8392 66.5488 40.8392C66.4764 41.4691 66.4112 42.0844 66.3316 42.7577C66.4764 42.7577 66.6067 42.7577 66.7298 42.7577C67.7652 42.7577 68.8078 42.7577 69.8433 42.7577C70.0387 42.7577 70.2342 42.7432 70.1329 43.0618C68.6486 43.0618 67.157 43.0618 65.6365 43.0618C65.803 41.498 65.9695 39.9487 66.1433 38.327C66.3967 38.327 66.6429 38.327 66.8891 38.327C67.9969 38.327 69.112 38.3198 70.2198 38.3343C70.3284 38.3343 70.4442 38.4356 70.5528 38.4863C70.4442 38.5442 70.3356 38.6528 70.227 38.6528C69.2133 38.6673 68.1996 38.66 67.186 38.66C67.0629 38.6673 66.9325 38.6673 66.7732 38.6673Z" fill="#526D3E"/>
<path d="M87.2281 38.899C86.4606 38.8193 85.7366 38.689 85.0197 38.689C84.6505 38.689 84.2378 38.8555 83.9192 39.0655C83.4268 39.3768 83.492 39.9125 84.035 40.1225C84.5925 40.3397 85.1863 40.4555 85.7583 40.6365C86.0914 40.7451 86.4317 40.8464 86.7213 41.0274C87.3078 41.3967 87.3368 42.0555 86.8082 42.5188C86.3375 42.9315 85.7438 43.0835 85.1428 43.1414C84.3826 43.2138 83.6295 43.1414 82.8982 42.8736C82.529 42.7432 82.529 42.736 82.6158 42.3523C83.1806 42.4899 83.7382 42.6709 84.3102 42.765C84.8894 42.8591 85.4614 42.7722 85.99 42.4899C86.2869 42.3306 86.4751 42.0917 86.4534 41.7369C86.4317 41.4039 86.171 41.2663 85.9103 41.1795C85.4542 41.0274 84.9908 40.9188 84.5274 40.774C84.1726 40.6655 83.8106 40.5569 83.4775 40.3976C82.7969 40.0718 82.7245 39.4202 83.282 38.9062C83.6947 38.5297 84.2088 38.3849 84.7374 38.327C85.4832 38.2474 86.2217 38.2836 86.9602 38.4935C87.2788 38.5877 87.2861 38.7397 87.2281 38.899Z" fill="#526D3E"/>
<path d="M54.1021 38.3994C54.732 38.2619 54.7682 38.2764 55.0433 38.7469C55.7384 39.9198 56.4335 41.0854 57.1648 42.3089C57.5486 41.8455 57.9106 41.4039 58.2727 40.9623C58.8881 40.2094 59.5253 39.4637 60.1118 38.689C60.3652 38.3632 60.6403 38.2836 61.0893 38.3777C59.7425 40.0139 58.432 41.6066 57.0707 43.2645C56.057 41.5994 55.0868 40.0067 54.1021 38.3994Z" fill="#526D3E"/>
<path d="M77.0838 38.3198C76.91 39.9343 76.7435 41.4836 76.5769 43.0618C76.3525 43.0618 76.1353 43.0618 75.9036 43.0618C76.0701 41.5704 76.2294 40.0935 76.3887 38.6094C76.4466 38.1026 76.8014 38.4356 77.0838 38.3198Z" fill="#526D3E"/>
<path d="M46.7311 36.7488C45.5075 37.7624 45.2106 37.9216 44.6096 37.8565C45.0513 37.4655 45.4278 37.0601 45.884 36.7705C46.065 36.6402 46.4053 36.7488 46.7311 36.7488Z" fill="#526D3E"/>
<path d="M198.842 45.7622C199.118 46.1676 199.371 46.5369 199.646 46.9423C199.299 47.0292 199.074 47.0075 198.937 46.6889C198.857 46.5007 198.727 46.3414 198.618 46.1676C198.437 45.8636 198.176 45.7912 197.814 45.8636C197.814 46.2183 197.814 46.5803 197.814 46.964C197.655 46.964 197.532 46.964 197.394 46.964C197.394 46.0735 197.394 45.1975 197.394 44.2491C197.879 44.2708 198.35 44.2781 198.828 44.3143C199.204 44.3432 199.422 44.5894 199.458 44.9514C199.494 45.2989 199.313 45.545 198.994 45.6971C198.944 45.7188 198.886 45.7405 198.842 45.7622ZM197.821 45.422C198.118 45.422 198.386 45.4581 198.632 45.4075C198.763 45.3785 198.958 45.1758 198.951 45.0672C198.937 44.9224 198.77 44.7197 198.632 44.6835C198.379 44.6256 198.097 44.669 197.821 44.669C197.821 44.9296 197.821 45.1541 197.821 45.422Z" fill="#526D3E"/>
</g>
<defs>
<clipPath id="clip0">
<rect width="201" height="63" fill="white"/>
</clipPath>
</defs>
</svg>
