<?xml version="1.0" encoding="utf-8"?>
<!-- Generator: Adobe Illustrator 21.1.0, SVG Export Plug-In . SVG Version: 6.00 Build 0)  -->
<svg version="1.1" id="Layer_1" xmlns="http://www.w3.org/2000/svg" xmlns:xlink="http://www.w3.org/1999/xlink" x="0px" y="0px"
	 width="2776px" height="870.2px" viewBox="0 0 2776 870.2" style="enable-background:new 0 0 2776 870.2;" xml:space="preserve">
<style type="text/css">
	.st0{fill:#FFFFFF;}
</style>
<g>
	<path class="st0" d="M0,823.2c1-7.5,2.2-15.1,3-22.6c3-27,5.9-53.9,8.8-80.9c3.5-32.1,6.9-64.2,10.3-96.3c1-9.1,1.4-18.3,3.5-27.2
		c4.9-21.1,20.2-31.9,40-36.6c10.1-2.4,20.7-3.9,31.1-4c52.5-0.4,105-0.3,157.5-0.1c12.3,0.1,24.6,1.7,36.1,6.6
		c18.2,7.7,26.3,21.1,24.3,40.7c-1.1,11.1-2.6,22.2-3.7,33.2c-0.3,2.6-0.8,4-3.8,3.9c-11.6-0.3-23.3-0.1-34.9-0.9
		c-13.3-1-19.5-8.4-19.2-21.8c0.1-3.5,0.4-7.1-0.3-10.4c-1.6-7.3-6.7-11.8-13.8-13.6c-4.6-1.2-9.5-1.9-14.3-1.9
		c-34.5-0.2-69-0.3-103.5,0.1c-7.3,0.1-14.9,1.7-22,3.8c-9.7,2.9-15,10.3-16.1,20.2c-3.6,31.9-6.8,63.9-10.3,95.8
		c-2.8,26.1-5.7,52.3-8.6,78.4c-0.8,6.9-1.6,13.9-2.2,20.8c-0.8,10.3,3.6,17.8,13.6,20.5c7.1,2,14.7,3,22.1,3.1c33,0.3,66,0.3,99,0
		c6.1-0.1,12.3-1.1,18.1-2.8c9.3-2.8,15.9-9.3,16.8-19.1c1.3-15.7,10.4-25.3,27.8-26.1c11.6-0.5,23.2-0.1,35.3-0.1
		c-1.2,11.1-2,22-3.7,32.8c-1.2,7.5-2.7,15.2-6,21.9c-7.3,14.9-21,22.1-36.4,25.3c-11.5,2.3-23.4,3.8-35.1,3.9
		c-48.8,0.4-97.6,0.2-146.5,0.1c-13.7,0-27.3-1.1-40.3-6c-14.1-5.3-23.9-14.2-26-29.9c-0.1-0.6-0.5-1.2-0.8-1.8
		C0,829.2,0,826.2,0,823.2z"/>
	<path class="st0" d="M2776,635.2c-0.9,2.6-1.8,5.3-2.9,7.8c-6.3,15.2-21.7,23.6-38,21c-15.6-2.5-27.8-16.3-28.8-32.6
		c-1-15.4,9.4-30.2,24.5-35c19-6,38.9,5.2,44.1,24.6c0.3,1.1,0.8,2.1,1.2,3.2C2776,627.8,2776,631.5,2776,635.2z M2741,658.4
		c16.3,0,29-12.5,29.1-28.6c0.1-16.2-12.8-28.9-29.3-28.9c-15.7,0-28.6,12.9-28.7,28.6C2711.9,645.4,2724.9,658.4,2741,658.4z"/>
	<path class="st0" d="M1638.2,109.6c-4.2-4.7-8.3-9.4-12.7-13.9c-28-28.4-62.4-45.5-100.6-55.4c-32.1-8.4-64.8-11.3-98-9.5
		c-88.2,4.7-167.3,34.3-237.1,88.2c-38.1,29.4-69,65-89.6,108.9c-12.2,25.9-19.4,53.1-19.3,81.9c0.2,49.5,20.4,89.8,58.1,121.5
		c30.8,26,67.1,40.4,106.2,47.8c58.9,11.2,116.9,5.9,174.2-10.3c0.9-0.3,1.9-0.4,3.1,0c-3.6,1.4-7.3,2.8-10.9,4.2
		c-3.8,1.4-7.5,2.6-11.3,3.9c-52.4,17.1-106.1,25.2-161.2,22.1c-49.5-2.9-96.7-14.4-139.2-40.9c-36.3-22.6-63.6-52.9-78.1-93.7
		c-12.8-36.2-12.3-72.8-2.3-109.4c11.9-43.5,35-80.7,65.1-113.7c44.9-49.3,99.7-84.2,161.3-108.9c35.4-14.1,71.9-23.8,109.7-28.6
		c64.6-8.1,128-4.1,188.4,22.7c38.5,17,70.3,42.3,92.5,78.7c0.8,1.3,1.4,2.6,2.1,4C1638.7,109.1,1638.5,109.3,1638.2,109.6z"/>
	<path class="st0" d="M2302.8,643.2c1.7-16.7,3.8-32.8,4.9-49c0.8-12.6-4.7-17.5-17.4-17.3c-5.3,0.1-10.6,0-16.6,0
		c0.4-3.7,0.8-7.2,1.1-10.8c0.4-3.5,0.7-6.9,1-10.6c1.6-0.1,2.9-0.3,4.2-0.3c23.2,0,46.3,0,69.5,0c14.9,0,22.1,7.4,20.7,22.2
		c-2.4,25-5.3,49.9-8,74.9c-2.8,26.3-5.6,52.6-8.4,78.9c-2.5,23.1-5.1,46.3-7.6,69.4c-1.1,9.6-2.2,19.2-3.1,28.8
		c-0.8,9.2,3.8,14.9,13.1,16.1c3.5,0.4,7,0.4,10.5,0.4c3.5,0.1,6.9,0,11,0c-0.9,8.3-1.7,16.1-2.6,24.2c-9.2,0-17.8,0-26.5,0
		c-16,0-32,0.1-48-0.1c-13.9-0.2-21.2-7.9-19.9-21.6c2-22,4.6-44,7-66c0.2-1.7,0.2-3.4,0.4-6.1c-6,10.6-10.8,20.7-17,29.8
		c-17.3,25.2-38.8,46.1-68.4,55.8c-14.5,4.8-30.3,6.4-45.6,7.5c-16,1.2-32.3,0.9-48.4-0.4c-20.2-1.7-32.2-15.4-31.5-35.5
		c0.5-16.8,2.7-33.5,4.4-50.2c2-20,4.3-40,6.5-60c1.9-17.5,3.3-35.1,6.1-52.5c2.8-17.4,13.9-28.6,29.9-35.3
		c15.1-6.2,30.9-7.6,47-7.6c35.2-0.1,70.3-0.1,105.5-0.1C2292.5,627.7,2295,629.2,2302.8,643.2z M2232.9,664.1c0,0.3,0,0.7,0,1
		c-18,0-36-0.7-53.9,0.2c-16.1,0.8-24.9,9.7-26.8,25c-0.9,7.3-1.5,14.6-2.3,21.8c-2.2,20.2-4.4,40.3-6.6,60.5
		c-1.4,13.1-3,26.1-4.1,39.2c-1.1,13.4,5.5,20.8,18.9,21.6c21.2,1.2,40.9-4.6,57.9-16.8c44.1-31.6,73.4-73.2,81.8-127.8
		c2.4-15.6-5.6-24.6-21.4-24.7C2261.9,664.1,2247.4,664.1,2232.9,664.1z"/>
	<path class="st0" d="M2681.9,797.3c-1.9,12.4-2.5,24.4-5.7,35.6c-6.1,21.1-23.1,30-43,34c-9.9,2-20.1,3-30.2,3.1
		c-50.5,0.3-101,0.4-151.4-0.1c-10.7-0.1-21.7-1.4-32-4.1c-24.8-6.5-34.4-22.4-31.2-47.9c3-23.6,5.2-47.3,7.8-70.9
		c2.7-24.8,5-49.7,8.3-74.4c2.3-17.5,12.8-29.5,28.9-36.6c15.8-6.9,32.5-8.2,49.4-8.3c48.3-0.1,96.6-0.1,145,0.1
		c14.7,0,29.2,1.2,43.1,6.8c16.2,6.7,24.9,18.8,24,36.4c-0.7,14.3-2.7,28.5-4.3,42.7c-0.8,7.1-1.4,14.3-3.3,21.1
		c-5.5,19.6-20.3,29.6-38.9,34c-11.2,2.6-23,4-34.5,4.1c-43.8,0.5-87.6,0.2-131.5,0.2c-3.2,0-6.4-0.1-9.5,0.4
		c-12.3,2-18.9,8.6-20.9,21.3c-0.9,5.4-1.6,10.9-1.8,16.3c-0.4,10.6,4.1,17.1,14.3,20c5.4,1.5,11.1,2.4,16.7,2.4
		c36.1,0.1,72.3,0.1,108.4-0.5c5.8-0.1,11.7-2.3,17.1-4.6c7-3,11.1-8.8,12.4-16.4c2.3-12.7,4.9-14.8,17.9-14.8
		C2651.5,797.3,2665.9,797.3,2681.9,797.3z M2457.3,742.3c4.4-5.9,10.6-5.4,16.8-5.4c37.8,0,75.6,0.1,113.4-0.1
		c6.5,0,13-0.5,19.3-1.7c12.7-2.4,22.6-9.3,23.4-25.4c0.4-7,1.4-13.9,2.3-20.8c1.4-10.9-3-18.7-13.6-21.8
		c-6.4-1.9-13.4-2.9-20.1-2.9c-31-0.3-61.9-0.2-92.9-0.1c-5.6,0-11.3,0.4-16.9,1c-14.7,1.7-24.4,10-25.9,22.7
		C2460.9,706,2459.2,724.2,2457.3,742.3z"/>
	<path class="st0" d="M1841.2,798.1c-2.2,12.6-3.4,25.4-6.9,37.6c-3.8,13.3-14.3,21.3-26.8,26.6c-13.2,5.6-27.2,7.7-41.5,7.7
		c-52.2,0.2-104.3,0.4-156.5-0.2c-11.5-0.1-23.3-2.1-34.3-5.3c-21.8-6.3-31-22.8-28-45.3c3-23.2,5.2-46.6,7.8-69.9
		c2.8-25.5,4.9-51,8.4-76.4c3.1-22.4,18-35.4,39.1-40.3c13.3-3.1,27.3-4.6,41-4.8c48.2-0.5,96.3-0.4,144.5,0.2
		c11.9,0.1,24,1.6,35.5,4.5c22.2,5.6,32,20,30.3,42.7c-1.2,16.2-3.4,32.4-5.1,48.6c-2.6,25.1-17.7,39.2-41,44.8
		c-11.2,2.7-23,4-34.6,4.2c-44.2,0.5-88.3,0.2-132.5,0.2c-3,0-6,0-8.9,0.5c-12.9,2.4-18.9,8.8-20.8,21.9c-0.8,5.8-1.7,11.5-1.8,17.3
		c-0.2,7.7,3.3,14,10.6,16.5c6.7,2.3,13.9,4,20.8,4.1c35.8,0.3,71.7,0,107.5-0.3c4.5,0,9.2-1.3,13.6-2.7c10.6-3.5,16-11.2,17.5-22.1
		c1-7.2,4.9-10.9,12-11c15.7-0.2,31.3-0.1,47-0.1C1838.6,797.3,1839.2,797.6,1841.2,798.1z M1616.5,741.7c4.3-4.5,9.4-4.8,14.6-4.8
		c38.7,0,77.3,0.1,116,0c6.5,0,13-0.7,19.3-1.7c12.3-2,21-10.1,22.5-21c1.3-9.1,2.2-18.2,3-27.3c0.8-8.7-3.3-16.2-11.7-18.8
		c-7.3-2.3-15.2-3.7-22.9-3.9c-31.2-0.4-62.3-0.2-93.5-0.1c-5.3,0-10.7,0.4-15.9,1.1c-14.9,1.9-23.3,9.4-25.7,22.4
		c-0.5,2.6-0.6,5.3-0.9,7.9C1619.8,711,1618.1,726.3,1616.5,741.7z"/>
	<path class="st0" d="M330.8,699.8c2.1-19.6,0.8-39.9,17.5-54.6c11.5-10.1,25.6-13.9,40.3-15.8c6.9-0.9,14-1.2,20.9-1.3
		c52.3,0,104.7-0.1,157,0.3c12.5,0.1,24.8,2.3,36.3,7.9c15.2,7.4,22.8,22.3,20.7,39.1c-2.8,23.3-5.1,46.6-7.6,70
		c-2.5,23.2-5,46.3-7.6,69.5c-0.7,5.9-1.3,12-3,17.6c-6,19.5-21,29.1-39.6,33.3c-10.6,2.4-21.7,3.9-32.6,4
		c-50.8,0.4-101.7,0.5-152.5-0.1c-11.5-0.1-23.3-1.9-34.4-5.1c-21.5-6.1-30.6-20.2-28.8-42.3c1.4-17.1,3.6-34.1,5.6-51.1
		c2.5-20.4,14.6-32.9,33.3-39.8c14.1-5.2,28.8-6.4,43.7-6.3c44.2,0,88.3,0,132.5,0c9.3,0,18.1-1.7,23.5-10.4c1.9-3.1,3.3-6.6,4-10.1
		c1.1-5.7,1.7-11.5,2.1-17.3c0.7-10-3.9-17.1-13.6-20.1c-5.3-1.6-11.1-2.8-16.6-2.9c-35-0.3-70-0.4-105,0.1
		c-7.3,0.1-14.8,2.2-21.7,4.8c-8.1,3-12.1,10.1-13.3,18.6c-1.2,9.1-4.8,12.4-13.6,12.5c-14.3,0.1-28.7,0-43,0
		C333.9,700.1,332.6,699.9,330.8,699.8z M554.9,754.3c-4.1,5.8-9.5,6.7-15.4,6.7c-40.3,0-80.7-0.1-121,0.1c-5.6,0-11.3,0.7-16.8,2.1
		c-11.8,2.9-19.2,10.2-20.5,22.8c-0.8,8.4-2,16.9-2.4,25.3c-0.5,10.7,3.9,17.1,14.3,20c6.2,1.7,12.8,2.7,19.2,2.7
		c32.8,0.3,65.7,0.4,98.5,0c7.5-0.1,15.2-1.7,22.4-4c8.5-2.7,13.9-9.1,15.1-18.2C550.6,792.6,552.7,773.5,554.9,754.3z"/>
	<path class="st0" d="M939.1,699.8c1.8-11.8,2.5-23.6,5.5-34.7c4.2-15.8,16.2-25.1,31.1-30.7c11.8-4.4,24.2-6.2,36.7-6.2
		c54.2-0.1,108.3-0.2,162.5,0.1c13.2,0.1,26.2,2.2,38.1,8.6c14.6,7.8,21.4,21.8,19.4,38.3c-2.8,23.5-5,47-7.6,70.5
		c-2.8,26.1-5.6,52.3-8.8,78.4c-2.4,19.9-14.4,32.2-32.8,39.1c-13.3,5-27.2,6.6-41.2,6.6c-50.2,0.2-100.3,0.4-150.5-0.2
		c-12.2-0.1-24.6-1.9-36.4-5c-20.9-5.5-30.6-19.8-29-41.2c1.3-17.1,3.5-34.1,5.4-51.1c2.6-22.4,16-35.4,36.6-42.1
		c13.3-4.3,27-5.3,40.9-5.3c43.5,0,87,0,130.5-0.1c4.1,0,8.4-0.2,12.4-1.3c10.3-2.8,15.5-10.3,17-20.6c0.6-3.9,0.9-7.9,1.5-11.9
		c2.1-14.8-4.3-23.6-19.2-26.1c-3.9-0.7-7.9-1.1-11.9-1.1c-34.3-0.1-68.7-0.3-103,0.2c-7.6,0.1-15.4,2.3-22.6,5
		c-7.9,2.9-11.7,10-13,18.2c-1.5,9.7-4.8,12.7-14.5,12.7c-14,0-28,0-42,0C943,700.1,941.5,700,939.1,699.8z M1163.7,754.6
		c-4.4,5.7-10.1,6.4-16.3,6.4c-40-0.1-80-0.1-120,0.1c-5.8,0-11.7,0.8-17.3,2.2c-9.8,2.5-17.4,8.2-19.1,18.8
		c-1.6,9.7-2.6,19.5-3.1,29.3c-0.6,10.6,4,17.2,14.4,19.8c6.8,1.8,14.1,2.7,21.2,2.8c30.2,0.3,60.3,0.2,90.5,0.1
		c5.3,0,10.7-0.3,16-0.8c16.5-1.6,26.1-9.7,28-24.1C1160.1,791,1161.8,772.8,1163.7,754.6z"/>
	<path class="st0" d="M911.7,711.9c-14.4,0-28.4,0.6-42.3-0.2c-9.6-0.5-15-7.6-15.2-17.2c-0.1-2.5,0-5,0.1-7.5
		c0.3-11.2-4.5-18-15.4-20.8c-4.6-1.2-9.5-2-14.3-2.1c-27.2-0.2-54.3-0.4-81.5,0.1c-7,0.1-14.2,2-20.7,4.5
		c-10.5,4.1-15.7,15.3-14,27.2c1.6,11.6,7.1,16.6,19.6,19.1c41.5,8.3,83.1,16.4,124.5,25.5c11.5,2.5,22.9,7.3,33.3,12.8
		c14.6,7.7,20.4,20.5,17.6,37.3c-1.9,11.1-2.1,22.5-3.8,33.7c-3.7,23.9-19.5,36.4-41.7,41.4c-11.4,2.6-23.4,3.8-35.1,4
		c-41.7,0.5-83.3,0.4-125,0.1c-15.3-0.1-30.6-1.6-44.6-9c-13.2-6.9-20.1-18-19.4-32.8c0.6-13.1,2.2-26.2,3.7-39.3
		c0.1-1.2,2.4-3.2,3.7-3.2c11.7-0.2,23.3-0.4,35,0.1c13.5,0.6,20.1,8.1,19.4,20.8c-1,17.7,5.5,25.3,23.4,26.9
		c5.5,0.5,11,0.8,16.5,0.8c22.3,0.1,44.7,0.5,67-0.2c8.6-0.3,17.7-2,25.6-5.2c12.9-5.3,17.7-24.6,10.1-36.5c-3.5-5.5-9-7.8-15-9
		c-34-6.9-68.1-13.5-102.1-20.7c-15.1-3.2-30.1-6.9-44.8-11.6c-6.8-2.1-13.2-6.4-18.9-10.8c-9.1-6.9-12.9-16.6-11.6-28.2
		c1.4-12.2,2.6-24.5,4.1-36.7c2.4-21,14.8-33.9,34.1-40.8c14.8-5.3,30.2-6.3,45.7-6.2c41.2,0.1,82.3-0.2,123.5,0.3
		c11.2,0.2,22.7,1.7,33.4,4.8c22.1,6.3,31,20.3,29.1,43.1C914.7,688,913.1,699.7,911.7,711.9z"/>
	<path class="st0" d="M1262.1,585.3c1.1-10.4,2.2-20,3.3-29.8c1.6-0.1,3-0.3,4.5-0.3c23.3,0,46.7-0.1,70,0
		c13.6,0.1,20.7,6.9,19.9,20.4c-0.8,14.3-2.6,28.5-4.2,42.7c-1.8,17.2-3.8,34.4-5.7,51.6c-2.3,20.5-4.5,41-6.7,61.5
		c-2.1,19.5-4.2,39-6.3,58.6c-1.1,10.6-2.3,21.2-3.2,31.8c-0.7,8.4,2.3,11.5,10.8,11.9c16.3,0.8,30.9-5,45.5-11.4
		c32.6-14.3,55.1-39.2,74.1-68.4c26.5-40.7,40.8-85.6,47.9-133.1c3-20,4.8-40.3,7.1-60.4c0.2-1.6,0.5-3.3,0.9-5c12,0,23.7,0,36.1,0
		c-0.8,7.4-1.2,14.5-2.3,21.5c-4.2,25.4-8,50.9-13,76.1c-7.9,39.5-22.4,76.5-45.9,109.6c-22.1,31.2-47.2,59.5-79.7,80.3
		c-25.1,16.1-53,23.8-82.4,26c-13.6,1-27.3,0.9-40.9,1.1c-15.8,0.1-23.1-7.6-21.7-23.4c1.8-19.4,4.1-38.7,6.2-58
		c2.2-20.2,4.4-40.3,6.6-60.5c2.9-26.5,5.8-52.9,8.7-79.4c1.8-16.4,3.6-32.8,5.3-49.1c0.2-2.3,0.2-4.7,0.1-7
		c-0.3-5.5-3.4-10.1-8.9-10.4c-6.7-0.4-13.4,0.8-20.2,1.5C1266.3,583.9,1264.6,584.6,1262.1,585.3z"/>
	<path class="st0" d="M1620.6,119.2c13.2,16.6,22,35.4,26.3,56.3c7.6,37.4,0.8,72.8-15.1,106.8c-15.5,33.1-38,60.9-65.2,85.1
		c-52.3,46.4-113.2,75.6-181.6,89.1c-56.3,11.1-112.3,10.7-166.9-9.2c-39.1-14.3-72-36.9-93.3-73.7c-22.4-38.8-24-80-10.9-122
		c12.8-41.3,37.2-75.3,68.4-104.6c11.4-10.7,23.9-20.1,36-30.1c1.1-0.9,2.4-1.6,4.1-1.8c-4.4,4.1-8.9,8-13.3,12.2
		c-26.4,25.2-47.8,53.8-60,88.5c-15.7,44.6-14,87.7,13.4,127.8c18.2,26.5,43.7,44,73.2,55.8c37.5,15,76.5,19.2,116.6,16.2
		c67.4-5.1,128.5-27.5,183.1-67.2c34.4-25,62.9-55.5,82-93.9c13.5-27.1,20.1-55.7,17.6-86C1633.5,151.2,1628.5,134.8,1620.6,119.2z"
		/>
	<path class="st0" d="M1864,652.1c0.8-7.8,1.4-15,2.4-22.2c0.1-0.8,2-2.1,3.1-2.1c25,0,50,0,74.9,0.5c10.4,0.2,16.2,7.1,16.5,17.5
		c0.1,2.1,0,4.2,0,6.5c0.6-0.3,1-0.4,1-0.6c5.8-16.1,17.9-23.5,34.5-23.7c21.5-0.3,43-0.2,64.5,0c7.9,0.1,10.8,3.4,10.1,11.4
		c-0.9,9.8-1.9,19.5-3.3,29.2c-1.9,12.8-12.2,20.5-25.9,19.2c0-2.4,0.3-4.8,0-7.3c-1.2-10-8.1-16.1-19.4-16.3
		c-13.5-0.3-27-0.4-40.5,0c-14.8,0.5-23.2,8.4-25,23.4c-2.6,22.8-4.8,45.6-7.3,68.5c-2.5,22.8-5.1,45.6-7.6,68.4
		c-0.3,2.6-0.3,5.3-0.3,8c0.2,7.3,4.2,12.1,11.5,12.7c7.2,0.6,14.6,0.1,22.8,0.1c-0.9,8.7-1.7,16.4-2.5,24.6c-1.8,0.1-3.4,0.2-5,0.2
		c-21.8,0-43.6,0-65.5,0c-2.3,0-4.7,0.1-7-0.3c-13.2-2-18.7-10.5-17.1-25c3.5-30.4,6.6-60.8,9.9-91.2c2.8-25.8,5.7-51.6,8.5-77.4
		c0.4-3.5,0.6-7,0.5-10.5c-0.2-8.4-4.9-13.2-13.4-13.6c-3.5-0.2-7-0.1-10.5-0.1C1871.1,652.1,1867.8,652.1,1864,652.1z"/>
	<path class="st0" d="M1589.5,254.5c2.3-8.4,5.1-16.8,6.7-25.4c8.9-48.3-10.4-90.8-52.5-116.1c-24.2-14.5-50.6-21.9-78.5-24
		c-63.3-4.8-121,12-173.7,46.3c-33.5,21.8-60.9,49.6-78.1,86.3c-9.7,20.7-14.6,42.5-12.4,65.4c2.9,30.1,16.9,54.4,40.4,73.1
		c8.9,7.1,19,12.7,27.2,18.2c-14.5-4.6-29.6-11.8-43.4-21.7c-24.9-17.8-42.1-41-48.9-71.1c-6.7-30-1.3-58.6,11.5-85.9
		c19.3-41.3,50.6-71.8,88.3-96.3c37.2-24.2,77.9-39.7,121.6-46.5c44.3-6.9,88.1-5,130,12.6c34,14.2,60.6,36.6,74.5,71.8
		c12.3,31.3,9.4,62.3-2.6,93c-2.8,7.1-6.3,13.8-9.4,20.7C1589.9,254.7,1589.7,254.6,1589.5,254.5z"/>
	<path class="st0" d="M478.9,594.9c-3.3,0-5.9,0-9.3,0c2-18.7,3.9-37.1,6-56.9c-2.5,1.5-4.1,2.4-5.7,3.5c-11.9,8-23.9,15.8-35.6,24
		c-3,2.1-5.1,2-7.9-0.3c-11.3-9.1-22.7-17.9-35-27.5c-2.1,19.6-4.2,38.3-6.3,57.2c-3,0-5.7,0-9.2,0c2.3-21.7,4.7-43.2,7-64.7
		c5.8-1.4,10.2-0.3,14.6,3.3c9.9,8.2,20.2,15.8,30.2,23.8c2.5,2,4.2,2.2,6.9,0.3c11.9-8.2,24.2-16,36-24.3c4.6-3.2,9.1-4.4,15.2-3.2
		C483.6,551.6,481.2,573.1,478.9,594.9z"/>
	<path class="st0" d="M617.7,596.6c-14.6-0.2-28.5-2.6-41.1-10.4c-2.5-1.6-5-3.4-7.1-5.5c-9.8-9.8-10.1-22.4-0.5-32.4
		c9.6-10,21.8-15,35.1-17.5c19.5-3.7,38.7-3.4,57.1,5.3c3.1,1.5,6.2,3.3,9,5.4c13.2,9.8,14.2,25,2.4,36.4
		c-10.6,10.3-23.8,14.9-38,17.2C629,595.9,623.3,596.1,617.7,596.6z M616.2,591.4c17.4,0.1,32.2-3.2,44.7-13.1
		c13.6-10.8,12.7-26.4-1.9-35.8c-8.8-5.6-18.5-8.2-28.8-8.8c-17.2-1.1-33.6,2-47.6,12.5c-15.2,11.4-13.8,28.1,2.8,37.5
		C595.5,589.3,606.4,591.6,616.2,591.4z"/>
	<path class="st0" d="M922.2,534.1c-0.9,8.8-1.8,17-2.7,25.7c16.9,0,33.1,0,49.4,0c0.3,4.2,0.3,4.3-3.1,4.3c-13.5,0-27,0-40.5,0
		c-1.8,0-3.6,0-6.2,0c-1,8.7-1.9,17.2-3,26.5c2,0,3.8,0,5.5,0c14.3,0,28.7,0,43,0c2.7,0,5.4-0.2,4,4.2c-20.5,0-41.1,0-62.1,0
		c2.3-21.6,4.6-43,7-65.4c3.5,0,6.9,0,10.3,0c15.3,0,30.7-0.1,46,0.1c1.5,0,3.1,1.4,4.6,2.1c-1.5,0.8-3,2.3-4.5,2.3
		c-14,0.2-28,0.1-42,0.1C926.2,534.1,924.4,534.1,922.2,534.1z"/>
	<path class="st0" d="M1204.7,537.3c-10.6-1.1-20.6-2.9-30.5-2.9c-5.1,0-10.8,2.3-15.2,5.2c-6.8,4.3-5.9,11.7,1.6,14.6
		c7.7,3,15.9,4.6,23.8,7.1c4.6,1.5,9.3,2.9,13.3,5.4c8.1,5.1,8.5,14.2,1.2,20.6c-6.5,5.7-14.7,7.8-23,8.6c-10.5,1-20.9,0-31-3.7
		c-5.1-1.8-5.1-1.9-3.9-7.2c7.8,1.9,15.5,4.4,23.4,5.7c8,1.3,15.9,0.1,23.2-3.8c4.1-2.2,6.7-5.5,6.4-10.4c-0.3-4.6-3.9-6.5-7.5-7.7
		c-6.3-2.1-12.7-3.6-19.1-5.6c-4.9-1.5-9.9-3-14.5-5.2c-9.4-4.5-10.4-13.5-2.7-20.6c5.7-5.2,12.8-7.2,20.1-8
		c10.3-1.1,20.5-0.6,30.7,2.3C1205.4,533,1205.5,535.1,1204.7,537.3z"/>
	<path class="st0" d="M747.2,530.4c8.7-1.9,9.2-1.7,13,4.8c9.6,16.2,19.2,32.3,29.3,49.2c5.3-6.4,10.3-12.5,15.3-18.6
		c8.5-10.4,17.3-20.7,25.4-31.4c3.5-4.5,7.3-5.6,13.5-4.3c-18.6,22.6-36.7,44.6-55.5,67.5C774.2,574.6,760.8,552.6,747.2,530.4z"/>
	<path class="st0" d="M1064.6,529.3c-2.4,22.3-4.7,43.7-7,65.5c-3.1,0-6.1,0-9.3,0c2.3-20.6,4.5-41,6.7-61.5
		C1055.8,526.3,1060.7,530.9,1064.6,529.3z"/>
	<path class="st0" d="M645.4,507.6c-16.9,14-21,16.2-29.3,15.3c6.1-5.4,11.3-11,17.6-15C636.2,506.1,640.9,507.6,645.4,507.6z"/>
	<path class="st0" d="M2746.2,632.1c3.8,5.6,7.3,10.7,11.1,16.3c-4.8,1.2-7.9,0.9-9.8-3.5c-1.1-2.6-2.9-4.8-4.4-7.2
		c-2.5-4.2-6.1-5.2-11.1-4.2c0,4.9,0,9.9,0,15.2c-2.2,0-3.9,0-5.8,0c0-12.3,0-24.4,0-37.5c6.7,0.3,13.2,0.4,19.8,0.9
		c5.2,0.4,8.2,3.8,8.7,8.8c0.5,4.8-2,8.2-6.4,10.3C2747.6,631.5,2746.8,631.8,2746.2,632.1z M2732.1,627.4c4.1,0,7.8,0.5,11.2-0.2
		c1.8-0.4,4.5-3.2,4.4-4.7c-0.2-2-2.5-4.8-4.4-5.3c-3.5-0.8-7.4-0.2-11.2-0.2C2732.1,620.6,2732.1,623.7,2732.1,627.4z"/>
</g>
</svg>
